<svg xmlns="http://www.w3.org/2000/svg" xmlns:xlink="http://www.w3.org/1999/xlink" width="500" zoomAndPan="magnify" viewBox="0 0 375 374.999991" height="500" preserveAspectRatio="xMidYMid meet" version="1.0"><defs><g/><clipPath id="1f5f8b8546"><path d="M 132 98 L 182 98 L 182 160 L 132 160 Z M 132 98 " clip-rule="nonzero"/></clipPath><clipPath id="5b5f580f70"><path d="M 112.21875 200.871094 L 143.960938 97.640625 L 266.546875 135.332031 L 234.804688 238.5625 Z M 112.21875 200.871094 " clip-rule="nonzero"/></clipPath><clipPath id="7b093bbe03"><path d="M 112.21875 200.871094 L 143.960938 97.640625 L 266.546875 135.332031 L 234.804688 238.5625 Z M 112.21875 200.871094 " clip-rule="nonzero"/></clipPath><clipPath id="e62f0113c6"><path d="M 164 158 L 240 158 L 240 234 L 164 234 Z M 164 158 " clip-rule="nonzero"/></clipPath><clipPath id="a38f9fc386"><path d="M 112.21875 200.871094 L 143.960938 97.640625 L 266.546875 135.332031 L 234.804688 238.5625 Z M 112.21875 200.871094 " clip-rule="nonzero"/></clipPath><clipPath id="39fa25de43"><path d="M 112.21875 200.871094 L 143.960938 97.640625 L 266.546875 135.332031 L 234.804688 238.5625 Z M 112.21875 200.871094 " clip-rule="nonzero"/></clipPath><clipPath id="ad213d3038"><path d="M 126.539062 185.597656 L 252.207031 185.597656 L 252.207031 198.589844 L 126.539062 198.589844 Z M 126.539062 185.597656 " clip-rule="nonzero"/></clipPath></defs><g fill="#28a745" fill-opacity="1"><g transform="translate(38.484377, 206.658942)"><g><path d="M 3.421875 -40.4375 C 4.503906 -40.4375 6.363281 -40.457031 9 -40.5 C 11.28125 -40.5 14.53125 -40.507812 18.75 -40.53125 C 22.96875 -40.550781 28.535156 -40.5625 35.453125 -40.5625 L 35.453125 -31.265625 L 16.5 -31.265625 L 16.5 -4.734375 L 37.203125 -4.734375 L 37.203125 -4.4375 C 37.203125 -4.476562 37.171875 -4.367188 37.109375 -4.109375 C 37.046875 -3.847656 36.960938 -3.5 36.859375 -3.0625 C 36.765625 -2.625 36.664062 -2.132812 36.5625 -1.59375 C 36.46875 -1.050781 36.359375 -0.519531 36.234375 0 C 35.640625 2.84375 35.320312 4.300781 35.28125 4.375 C 35.238281 4.5 30.117188 4.5625 19.921875 4.5625 L 4.6875 4.5625 L 4.6875 -17.21875 C 4.6875 -24.539062 4.675781 -29.96875 4.65625 -33.5 C 4.632812 -37.039062 4.582031 -38.953125 4.5 -39.234375 C 4.375 -39.835938 4.015625 -40.238281 3.421875 -40.4375 Z M 18.484375 -22.921875 L 34.5 -22.921875 L 34.5 -13.734375 L 18.484375 -13.734375 Z M 18.484375 -22.921875 "/></g></g></g><g fill="#28a745" fill-opacity="1"><g transform="translate(77.724334, 206.658942)"><g><path d="M 3.84375 -38.34375 L 2.640625 -40.5625 L 16.4375 -40.5625 L 16.625 -40.015625 C 16.9375 -39.378906 17.523438 -38.128906 18.390625 -36.265625 C 19.253906 -34.410156 20.40625 -31.921875 21.84375 -28.796875 C 21.84375 -28.722656 21.890625 -28.5625 21.984375 -28.3125 C 22.085938 -28.070312 22.195312 -27.820312 22.3125 -27.5625 C 22.4375 -27.3125 22.546875 -27.082031 22.640625 -26.875 C 22.742188 -26.675781 22.816406 -26.578125 22.859375 -26.578125 C 22.898438 -26.578125 24.0625 -28.898438 26.34375 -33.546875 L 29.8125 -40.5625 L 42.546875 -40.5625 L 42.421875 -40.375 C 42.378906 -40.257812 42.078125 -39.757812 41.515625 -38.875 C 41.359375 -38.59375 41.066406 -38.09375 40.640625 -37.375 C 40.222656 -36.65625 39.675781 -35.695312 39 -34.5 C 33 -24.175781 30 -18.957031 30 -18.84375 C 30.039062 -18.800781 30.679688 -17.738281 31.921875 -15.65625 C 33.765625 -12.582031 35.503906 -9.550781 37.140625 -6.5625 C 38.773438 -3.582031 40.351562 -0.613281 41.875 2.34375 L 43.015625 4.5625 L 28.859375 4.5625 L 28.375 3.65625 C 28.375 3.613281 28.285156 3.410156 28.109375 3.046875 C 27.929688 2.691406 27.722656 2.253906 27.484375 1.734375 C 27.242188 1.210938 26.992188 0.660156 26.734375 0.078125 C 26.472656 -0.492188 26.222656 -1.039062 25.984375 -1.5625 C 23.265625 -7.394531 21.90625 -10.3125 21.90625 -10.3125 C 21.90625 -10.3125 21.320312 -9.191406 20.15625 -6.953125 C 19.320312 -5.273438 18.625 -3.875 18.0625 -2.75 C 17.5 -1.632812 17.078125 -0.78125 16.796875 -0.1875 C 15.679688 2.175781 15.019531 3.554688 14.8125 3.953125 L 14.515625 4.5625 L 8.046875 4.5625 C 3.765625 4.5625 1.625 4.539062 1.625 4.5 C 1.625 4.457031 1.898438 3.925781 2.453125 2.90625 C 3.015625 1.882812 3.722656 0.609375 4.578125 -0.921875 C 5.441406 -2.460938 6.382812 -4.125 7.40625 -5.90625 C 8.425781 -7.6875 9.394531 -9.382812 10.3125 -11 C 11.238281 -12.625 12.0625 -14.046875 12.78125 -15.265625 C 13.5 -16.484375 13.957031 -17.253906 14.15625 -17.578125 L 14.34375 -17.9375 L 10.984375 -24.59375 C 9.742188 -27.039062 8.769531 -28.921875 8.0625 -30.234375 C 7.363281 -31.554688 6.9375 -32.335938 6.78125 -32.578125 C 6.695312 -32.773438 6.566406 -33.0625 6.390625 -33.4375 C 6.210938 -33.820312 5.941406 -34.359375 5.578125 -35.046875 C 5.460938 -35.285156 5.265625 -35.671875 4.984375 -36.203125 C 4.703125 -36.742188 4.320312 -37.457031 3.84375 -38.34375 Z M 3.84375 -38.34375 "/></g></g></g><g fill="#28a745" fill-opacity="1"><g transform="translate(122.664284, 206.658942)"><g><path d="M 3.484375 -40.4375 C 3.441406 -40.4375 3.5 -40.457031 3.65625 -40.5 C 3.851562 -40.539062 4.453125 -40.5625 5.453125 -40.5625 C 6.453125 -40.5625 7.914062 -40.5625 9.84375 -40.5625 L 16.5 -40.5625 L 16.5 4.5625 L 4.5625 4.5625 L 4.5625 -17.15625 C 4.5625 -24.4375 4.550781 -29.894531 4.53125 -33.53125 C 4.507812 -37.175781 4.476562 -39.078125 4.4375 -39.234375 C 4.320312 -39.753906 4.003906 -40.15625 3.484375 -40.4375 Z M 18.0625 -40.5625 L 22.5 -40.5625 C 23.65625 -40.5625 24.625 -40.5625 25.40625 -40.5625 C 26.1875 -40.5625 26.796875 -40.539062 27.234375 -40.5 C 27.640625 -40.457031 28.039062 -40.40625 28.4375 -40.34375 C 28.84375 -40.289062 29.242188 -40.179688 29.640625 -40.015625 C 30.722656 -39.734375 31.765625 -39.28125 32.765625 -38.65625 C 33.765625 -38.039062 34.671875 -37.3125 35.484375 -36.46875 C 36.304688 -35.632812 37.015625 -34.707031 37.609375 -33.6875 C 38.210938 -32.664062 38.675781 -31.632812 39 -30.59375 C 40.15625 -26.914062 39.894531 -23.398438 38.21875 -20.046875 C 37.257812 -18.117188 35.976562 -16.515625 34.375 -15.234375 C 32.78125 -13.953125 30.960938 -13.015625 28.921875 -12.421875 C 27.484375 -12.054688 25.082031 -11.875 21.71875 -11.875 L 18.0625 -11.875 L 18.0625 -20.34375 L 20.453125 -20.40625 C 21.972656 -20.40625 22.9375 -20.441406 23.34375 -20.515625 C 26.0625 -21.441406 27.320312 -23.503906 27.125 -26.703125 C 27 -28.941406 26.140625 -30.378906 24.546875 -31.015625 C 24.179688 -31.179688 23 -31.265625 21 -31.265625 L 18.0625 -31.265625 Z M 18.0625 -40.5625 "/></g></g></g><g fill="#28a745" fill-opacity="1"><g transform="translate(164.004243, 206.658942)"><g><path d="M 12.125 -40.375 C 12 -40.414062 12.035156 -40.457031 12.234375 -40.5 C 12.515625 -40.539062 13.363281 -40.5625 14.78125 -40.5625 C 16.207031 -40.5625 18.097656 -40.5625 20.453125 -40.5625 L 29.453125 -40.5625 L 29.875 -39.359375 C 30.082031 -38.515625 30.441406 -37.253906 30.953125 -35.578125 C 31.273438 -34.535156 31.535156 -33.65625 31.734375 -32.9375 C 31.941406 -32.21875 32.082031 -31.660156 32.15625 -31.265625 C 32.195312 -31.023438 32.5 -29.984375 33.0625 -28.140625 C 33.625 -26.335938 34.039062 -24.894531 34.3125 -23.8125 C 34.757812 -22.332031 35.179688 -20.894531 35.578125 -19.5 C 35.984375 -18.101562 36.382812 -16.765625 36.78125 -15.484375 C 36.863281 -15.203125 36.960938 -14.847656 37.078125 -14.421875 C 37.203125 -14.003906 37.363281 -13.515625 37.5625 -12.953125 C 37.71875 -12.398438 37.835938 -11.953125 37.921875 -11.609375 C 38.003906 -11.265625 38.0625 -11.035156 38.09375 -10.921875 C 38.132812 -10.835938 38.1875 -10.65625 38.25 -10.375 C 38.3125 -10.09375 38.421875 -9.734375 38.578125 -9.296875 C 38.898438 -8.378906 39.082031 -7.738281 39.125 -7.375 C 39.164062 -7.257812 39.222656 -7.039062 39.296875 -6.71875 C 39.378906 -6.394531 39.46875 -6.0625 39.5625 -5.71875 C 39.664062 -5.382812 39.765625 -5.078125 39.859375 -4.796875 C 39.960938 -4.515625 40.015625 -4.335938 40.015625 -4.265625 C 40.054688 -4.222656 40.195312 -3.757812 40.4375 -2.875 C 40.476562 -2.71875 40.566406 -2.390625 40.703125 -1.890625 C 40.847656 -1.390625 41 -0.890625 41.15625 -0.390625 C 41.320312 0.109375 41.460938 0.566406 41.578125 0.984375 C 41.703125 1.410156 41.78125 1.644531 41.8125 1.6875 C 41.8125 1.84375 41.875 2.117188 42 2.515625 C 42.125 2.921875 42.222656 3.179688 42.296875 3.296875 C 42.335938 3.535156 42.378906 3.742188 42.421875 3.921875 C 42.460938 4.109375 42.503906 4.257812 42.546875 4.375 C 42.578125 4.414062 42.515625 4.457031 42.359375 4.5 C 42.203125 4.539062 41.648438 4.5625 40.703125 4.5625 C 39.765625 4.5625 38.515625 4.5625 36.953125 4.5625 L 30.78125 4.5625 L 30.546875 3.84375 C 30.460938 3.644531 30.378906 3.394531 30.296875 3.09375 C 30.222656 2.789062 30.144531 2.441406 30.0625 2.046875 C 30.0625 1.960938 30.019531 1.78125 29.9375 1.5 C 29.851562 1.21875 29.753906 0.859375 29.640625 0.421875 C 29.484375 -0.015625 29.351562 -0.421875 29.25 -0.796875 C 29.144531 -1.179688 29.054688 -1.535156 28.984375 -1.859375 L 28.265625 -4.734375 L 14.703125 -4.734375 L 14.578125 -4.3125 C 14.222656 -3.039062 13.894531 -1.820312 13.59375 -0.65625 C 13.289062 0.5 13.019531 1.578125 12.78125 2.578125 L 12.234375 4.5625 L 6.125 4.5625 C 4.519531 4.519531 3.25 4.488281 2.3125 4.46875 C 1.375 4.445312 0.90625 4.414062 0.90625 4.375 C 2.0625 0.738281 3.160156 -2.90625 4.203125 -6.5625 C 5.242188 -10.226562 6.265625 -13.921875 7.265625 -17.640625 C 7.265625 -17.722656 7.34375 -18.03125 7.5 -18.5625 C 7.65625 -19.101562 7.773438 -19.535156 7.859375 -19.859375 C 8.054688 -20.460938 8.234375 -21.0625 8.390625 -21.65625 C 8.554688 -22.257812 8.71875 -22.878906 8.875 -23.515625 C 9.039062 -24.078125 9.210938 -24.695312 9.390625 -25.375 C 9.566406 -26.0625 9.773438 -26.800781 10.015625 -27.59375 C 10.054688 -27.71875 10.113281 -27.945312 10.1875 -28.28125 C 10.269531 -28.625 10.363281 -28.984375 10.46875 -29.359375 C 10.570312 -29.742188 10.671875 -30.101562 10.765625 -30.4375 C 10.867188 -30.78125 10.921875 -30.992188 10.921875 -31.078125 C 11.003906 -31.273438 11.082031 -31.515625 11.15625 -31.796875 C 11.238281 -32.078125 11.335938 -32.414062 11.453125 -32.8125 C 11.660156 -33.613281 11.78125 -34.078125 11.8125 -34.203125 C 11.894531 -34.398438 11.984375 -34.738281 12.078125 -35.21875 C 12.179688 -35.695312 12.335938 -36.296875 12.546875 -37.015625 C 12.859375 -37.972656 13.015625 -38.570312 13.015625 -38.8125 C 13.015625 -39.539062 12.71875 -40.0625 12.125 -40.375 Z M 22.265625 -27.484375 C 21.785156 -29.398438 21.503906 -30.359375 21.421875 -30.359375 C 21.335938 -30.117188 21.15625 -29.359375 20.875 -28.078125 C 20.800781 -27.753906 20.703125 -27.320312 20.578125 -26.78125 C 20.460938 -26.25 20.300781 -25.582031 20.09375 -24.78125 C 20.019531 -24.539062 19.878906 -23.976562 19.671875 -23.09375 C 19.472656 -22.21875 19.253906 -21.300781 19.015625 -20.34375 C 18.703125 -19.21875 18.382812 -18 18.0625 -16.6875 C 17.65625 -15.082031 17.453125 -14.21875 17.453125 -14.09375 C 17.453125 -14.019531 18.832031 -13.984375 21.59375 -13.984375 L 25.734375 -13.984375 L 25.625 -14.578125 C 25.300781 -15.859375 24.859375 -17.566406 24.296875 -19.703125 C 23.734375 -21.847656 23.054688 -24.441406 22.265625 -27.484375 Z M 22.265625 -27.484375 "/></g></g></g><g fill="#28a745" fill-opacity="1"><g transform="translate(207.504194, 206.658942)"><g><path d="M 3.421875 -40.5625 L 16.625 -40.5625 L 16.625 4.5625 L 4.4375 4.5625 L 4.4375 -20.875 C 4.4375 -25.59375 4.4375 -29.320312 4.4375 -32.0625 C 4.4375 -34.8125 4.414062 -36.582031 4.375 -37.375 C 4.332031 -38.9375 4.210938 -39.816406 4.015625 -40.015625 L 3.90625 -40.140625 C 3.820312 -40.222656 3.738281 -40.300781 3.65625 -40.375 C 3.582031 -40.457031 3.503906 -40.519531 3.421875 -40.5625 Z M 18.1875 -40.5625 L 20.21875 -40.5625 L 21.1875 -38.28125 C 21.382812 -37.882812 21.679688 -37.1875 22.078125 -36.1875 C 22.441406 -35.21875 22.679688 -34.613281 22.796875 -34.375 C 23.472656 -32.738281 24.242188 -30.847656 25.109375 -28.703125 C 25.972656 -26.566406 26.921875 -24.140625 27.953125 -21.421875 C 30.078125 -16.015625 31.398438 -12.472656 31.921875 -10.796875 L 32.15625 -10.203125 L 32.21875 -13.6875 L 32.21875 -28.3125 C 32.132812 -35.875 32.054688 -39.738281 31.984375 -39.90625 C 31.859375 -40.101562 31.617188 -40.320312 31.265625 -40.5625 L 44.046875 -40.5625 L 44.046875 4.5625 L 28.6875 4.5625 L 26.8125 -0.1875 C 25.414062 -3.738281 24.046875 -7.101562 22.703125 -10.28125 C 21.367188 -13.46875 20.082031 -16.5 18.84375 -19.375 L 18.1875 -20.9375 Z M 18.1875 -40.5625 "/></g></g></g><g fill="#28a745" fill-opacity="1"><g transform="translate(256.044146, 206.658942)"><g><path d="M 17.640625 -40.921875 C 17.796875 -40.960938 18.113281 -40.992188 18.59375 -41.015625 C 19.070312 -41.035156 19.691406 -41.023438 20.453125 -40.984375 C 21.734375 -40.941406 22.953125 -40.859375 24.109375 -40.734375 C 25.273438 -40.617188 26.394531 -40.410156 27.46875 -40.109375 C 28.550781 -39.804688 29.613281 -39.382812 30.65625 -38.84375 C 31.695312 -38.3125 32.695312 -37.601562 33.65625 -36.71875 C 35.21875 -35.28125 36.335938 -33.5625 37.015625 -31.5625 C 37.097656 -31.363281 37.1875 -31.09375 37.28125 -30.75 C 37.382812 -30.40625 37.476562 -30.015625 37.5625 -29.578125 C 37.644531 -29.140625 37.710938 -28.78125 37.765625 -28.5 C 37.828125 -28.21875 37.859375 -28.019531 37.859375 -27.90625 L 37.859375 -27.59375 L 26.09375 -27.59375 L 25.984375 -28.265625 C 25.859375 -28.984375 25.578125 -29.601562 25.140625 -30.125 C 24.703125 -30.644531 24.191406 -31.082031 23.609375 -31.4375 C 23.023438 -31.800781 22.394531 -32.0625 21.71875 -32.21875 C 21.039062 -32.375 20.363281 -32.453125 19.6875 -32.453125 C 17.195312 -32.453125 15.914062 -31.273438 15.84375 -28.921875 C 15.84375 -28.003906 16.320312 -27.203125 17.28125 -26.515625 C 18.238281 -25.835938 19.957031 -25.140625 22.4375 -24.421875 C 24.394531 -23.773438 26.0625 -23.210938 27.4375 -22.734375 C 28.820312 -22.253906 29.976562 -21.796875 30.90625 -21.359375 C 31.78125 -20.921875 32.554688 -20.46875 33.234375 -20 C 33.921875 -19.539062 34.523438 -19.070312 35.046875 -18.59375 C 36.359375 -17.320312 37.363281 -15.820312 38.0625 -14.09375 C 38.769531 -12.375 39.082031 -10.597656 39 -8.765625 C 38.84375 -6.160156 38.179688 -3.976562 37.015625 -2.21875 C 35.859375 -0.457031 34.378906 0.957031 32.578125 2.03125 C 30.773438 3.113281 28.765625 3.882812 26.546875 4.34375 C 24.328125 4.8125 22.078125 5.0625 19.796875 5.09375 C 17.753906 5.09375 15.832031 4.875 14.03125 4.4375 C 12.238281 4 10.609375 3.316406 9.140625 2.390625 C 7.679688 1.472656 6.421875 0.273438 5.359375 -1.203125 C 4.304688 -2.679688 3.5 -4.460938 2.9375 -6.546875 C 2.539062 -7.859375 2.34375 -8.835938 2.34375 -9.484375 C 2.34375 -9.640625 4.34375 -9.675781 8.34375 -9.59375 L 14.40625 -9.59375 L 14.453125 -8.765625 C 14.691406 -7.597656 15.203125 -6.5625 15.984375 -5.65625 C 16.765625 -4.757812 17.675781 -4.15625 18.71875 -3.84375 C 19 -3.757812 19.316406 -3.695312 19.671875 -3.65625 C 20.035156 -3.613281 20.4375 -3.59375 20.875 -3.59375 C 21.875 -3.59375 22.832031 -3.773438 23.75 -4.140625 C 24.675781 -4.503906 25.335938 -5.203125 25.734375 -6.234375 C 26.140625 -7.078125 26.179688 -8.039062 25.859375 -9.125 C 25.535156 -10.28125 25.054688 -11.097656 24.421875 -11.578125 C 23.660156 -12.179688 21.597656 -12.941406 18.234375 -13.859375 C 16.597656 -14.296875 15.148438 -14.734375 13.890625 -15.171875 C 12.628906 -15.617188 11.539062 -16.0625 10.625 -16.5 C 7.976562 -17.78125 6.101562 -19.347656 5 -21.203125 C 3.90625 -23.066406 3.421875 -25.519531 3.546875 -28.5625 C 3.617188 -30.476562 3.992188 -32.144531 4.671875 -33.5625 C 5.359375 -34.988281 6.269531 -36.203125 7.40625 -37.203125 C 8.550781 -38.203125 9.882812 -39 11.40625 -39.59375 C 12.925781 -40.195312 14.5625 -40.597656 16.3125 -40.796875 C 16.5625 -40.796875 16.820312 -40.816406 17.09375 -40.859375 C 17.375 -40.898438 17.554688 -40.921875 17.640625 -40.921875 Z M 17.640625 -40.921875 "/></g></g></g><g fill="#28a745" fill-opacity="1"><g transform="translate(297.264114, 206.658942)"><g><path d="M 3.421875 -40.4375 C 4.503906 -40.4375 6.363281 -40.457031 9 -40.5 C 11.28125 -40.5 14.53125 -40.507812 18.75 -40.53125 C 22.96875 -40.550781 28.535156 -40.5625 35.453125 -40.5625 L 35.453125 -31.265625 L 16.5 -31.265625 L 16.5 -4.734375 L 37.203125 -4.734375 L 37.203125 -4.4375 C 37.203125 -4.476562 37.171875 -4.367188 37.109375 -4.109375 C 37.046875 -3.847656 36.960938 -3.5 36.859375 -3.0625 C 36.765625 -2.625 36.664062 -2.132812 36.5625 -1.59375 C 36.46875 -1.050781 36.359375 -0.519531 36.234375 0 C 35.640625 2.84375 35.320312 4.300781 35.28125 4.375 C 35.238281 4.5 30.117188 4.5625 19.921875 4.5625 L 4.6875 4.5625 L 4.6875 -17.21875 C 4.6875 -24.539062 4.675781 -29.96875 4.65625 -33.5 C 4.632812 -37.039062 4.582031 -38.953125 4.5 -39.234375 C 4.375 -39.835938 4.015625 -40.238281 3.421875 -40.4375 Z M 18.484375 -22.921875 L 34.5 -22.921875 L 34.5 -13.734375 L 18.484375 -13.734375 Z M 18.484375 -22.921875 "/></g></g></g><g clip-path="url(#1f5f8b8546)"><g clip-path="url(#5b5f580f70)"><g clip-path="url(#7b093bbe03)"><path fill="#28a745" d="M 144.96875 99.011719 C 143.386719 99.527344 144.734375 107.554688 144.898438 108.519531 C 145.734375 113.488281 147.242188 117.46875 148.515625 120.25 C 146.863281 121.949219 145.214844 123.644531 143.5625 125.34375 C 143.355469 124.785156 143.148438 124.226562 142.9375 123.667969 C 142.527344 123.820312 141.9375 124.09375 141.339844 124.585938 C 140.628906 125.167969 140.210938 125.800781 139.980469 126.214844 C 140.21875 126.734375 140.457031 127.257812 140.691406 127.777344 C 137.90625 130.792969 135.117188 133.8125 132.328125 136.828125 C 132.324219 136.847656 132.316406 136.863281 132.308594 136.882812 C 132.375 139.167969 132.867188 141.410156 133.207031 143.667969 C 137.238281 140.050781 141.269531 136.433594 145.304688 132.816406 L 145.800781 133.816406 C 146.019531 133.636719 146.238281 133.453125 146.453125 133.273438 C 146.386719 132.835938 146.320312 132.398438 146.253906 131.960938 C 147.699219 130.667969 149.140625 129.375 150.585938 128.078125 L 159.894531 149.773438 C 158.421875 151.414062 156.949219 153.050781 155.476562 154.691406 C 155.574219 156.359375 155.667969 158.027344 155.761719 159.695312 L 162.476562 153.863281 C 162.859375 154.496094 163.242188 155.132812 163.628906 155.769531 C 163.8125 155.703125 163.996094 155.640625 164.183594 155.578125 C 164.152344 154.875 164.117188 154.167969 164.085938 153.464844 C 166.820312 153.945312 169.554688 154.425781 172.289062 154.902344 C 171.53125 153.441406 170.777344 151.980469 170.023438 150.519531 C 167.808594 149.882812 165.597656 149.246094 163.382812 148.613281 L 157.84375 125.730469 L 163.019531 126.320312 L 163.523438 127.308594 L 164.050781 127.332031 C 164.132812 127.136719 164.214844 126.9375 164.296875 126.738281 C 170.199219 127.660156 176.097656 128.585938 181.996094 129.507812 C 181.648438 128.730469 181.34375 128.109375 181.121094 127.6875 C 180.390625 126.320312 179.597656 124.980469 178.941406 123.578125 C 178.847656 123.378906 178.761719 123.179688 178.675781 122.980469 C 174.308594 121.875 169.941406 120.773438 165.574219 119.667969 C 165.449219 119.109375 165.324219 118.546875 165.199219 117.988281 C 164.789062 117.769531 164.109375 117.476562 163.226562 117.378906 C 162.511719 117.304688 161.914062 117.378906 161.503906 117.464844 C 161.527344 118.050781 161.554688 118.636719 161.578125 119.222656 C 159.355469 118.792969 157.128906 118.363281 154.90625 117.9375 C 154.101562 114.636719 152.675781 110.167969 149.980469 105.3125 C 148.851562 103.28125 146.25 98.59375 144.96875 99.011719 Z M 144.96875 99.011719 " fill-opacity="1" fill-rule="nonzero"/></g></g></g><g clip-path="url(#e62f0113c6)"><g clip-path="url(#a38f9fc386)"><g clip-path="url(#39fa25de43)"><path fill="#28a745" d="M 199.132812 221.066406 C 205.695312 226.625 214.546875 232.335938 223.308594 233.007812 C 227.242188 233.390625 231.574219 232.78125 234.71875 230.195312 C 237.808594 227.722656 239.382812 223.8125 239.6875 219.957031 C 238.542969 224.765625 235.664062 229.191406 230.667969 230.496094 C 228.359375 231.125 225.925781 231.035156 223.578125 230.664062 C 214.554688 229.34375 205.160156 222.109375 198.679688 215.921875 C 191.960938 209.480469 186.144531 202.113281 181.125 194.269531 C 176.582031 187.15625 172.726562 179.640625 169.511719 171.824219 C 167.714844 167.460938 166.136719 162.992188 164.699219 158.496094 C 168.453125 181.945312 181.066406 205.542969 199.132812 221.066406 Z M 199.132812 221.066406 " fill-opacity="1" fill-rule="nonzero"/></g></g></g><g clip-path="url(#ad213d3038)"><path fill="#ffffff" d="M 126.539062 185.597656 L 252.230469 185.597656 L 252.230469 198.589844 L 126.539062 198.589844 Z M 126.539062 185.597656 " fill-opacity="1" fill-rule="nonzero"/></g><g fill="#0b3042" fill-opacity="1"><g transform="translate(127.822247, 196.241778)"><g/></g></g><g fill="#0b3042" fill-opacity="1"><g transform="translate(137.994121, 196.241778)"><g><path d="M 8.21875 -9.875 L 10.40625 -9.875 L 5.796875 0 L 4.875 0 L 0.28125 -9.875 L 2.453125 -9.875 L 5.328125 -3.4375 Z M 8.21875 -9.875 "/></g></g></g><g fill="#0b3042" fill-opacity="1"><g transform="translate(157.112202, 196.241778)"><g><path d="M 5.859375 -9.96875 C 6.585938 -9.96875 7.269531 -9.835938 7.90625 -9.578125 C 8.539062 -9.316406 9.097656 -8.953125 9.578125 -8.484375 C 10.054688 -8.023438 10.429688 -7.492188 10.703125 -6.890625 C 10.972656 -6.285156 11.109375 -5.628906 11.109375 -4.921875 C 11.109375 -4.222656 10.972656 -3.570312 10.703125 -2.96875 C 10.429688 -2.363281 10.054688 -1.828125 9.578125 -1.359375 C 9.097656 -0.898438 8.539062 -0.539062 7.90625 -0.28125 C 7.269531 -0.0195312 6.585938 0.109375 5.859375 0.109375 C 5.140625 0.109375 4.460938 -0.0195312 3.828125 -0.28125 C 3.191406 -0.539062 2.628906 -0.898438 2.140625 -1.359375 C 1.660156 -1.828125 1.285156 -2.363281 1.015625 -2.96875 C 0.742188 -3.570312 0.609375 -4.222656 0.609375 -4.921875 C 0.609375 -5.628906 0.742188 -6.285156 1.015625 -6.890625 C 1.285156 -7.492188 1.660156 -8.023438 2.140625 -8.484375 C 2.628906 -8.953125 3.191406 -9.316406 3.828125 -9.578125 C 4.460938 -9.835938 5.140625 -9.96875 5.859375 -9.96875 Z M 5.859375 -1.765625 C 6.453125 -1.765625 6.988281 -1.90625 7.46875 -2.1875 C 7.957031 -2.476562 8.347656 -2.863281 8.640625 -3.34375 C 8.929688 -3.820312 9.078125 -4.347656 9.078125 -4.921875 C 9.078125 -5.503906 8.929688 -6.035156 8.640625 -6.515625 C 8.347656 -6.992188 7.957031 -7.375 7.46875 -7.65625 C 6.988281 -7.945312 6.453125 -8.09375 5.859375 -8.09375 C 5.273438 -8.09375 4.738281 -7.945312 4.25 -7.65625 C 3.769531 -7.375 3.382812 -6.992188 3.09375 -6.515625 C 2.8125 -6.035156 2.671875 -5.503906 2.671875 -4.921875 C 2.671875 -4.347656 2.8125 -3.820312 3.09375 -3.34375 C 3.382812 -2.863281 3.769531 -2.476562 4.25 -2.1875 C 4.738281 -1.90625 5.273438 -1.765625 5.859375 -1.765625 Z M 5.859375 -1.765625 "/></g></g></g><g fill="#0b3042" fill-opacity="1"><g transform="translate(177.349652, 196.241778)"><g><path d="M 9.6875 -9.875 L 5.890625 -3.34375 L 5.890625 0 L 3.875 0 L 3.875 -3.34375 L 0.09375 -9.875 L 2.375 -9.875 L 4.90625 -5.515625 L 7.390625 -9.875 Z M 9.6875 -9.875 "/></g></g></g><g fill="#0b3042" fill-opacity="1"><g transform="translate(195.61421, 196.241778)"><g><path d="M 7.578125 -2 L 3.15625 -2 L 2.28125 0 L 0.171875 0 L 4.875 -9.875 L 5.859375 -9.875 L 10.578125 0 L 8.46875 0 Z M 3.875 -3.671875 L 6.859375 -3.671875 L 5.359375 -6.9375 Z M 3.875 -3.671875 "/></g></g></g><g fill="#0b3042" fill-opacity="1"><g transform="translate(214.844225, 196.241778)"><g><path d="M 10.15625 -4.9375 L 10.15625 -1.328125 C 9.625 -0.890625 8.988281 -0.539062 8.25 -0.28125 C 7.507812 -0.0195312 6.710938 0.109375 5.859375 0.109375 C 5.140625 0.109375 4.460938 -0.0195312 3.828125 -0.28125 C 3.203125 -0.539062 2.644531 -0.898438 2.15625 -1.359375 C 1.675781 -1.828125 1.300781 -2.363281 1.03125 -2.96875 C 0.757812 -3.570312 0.625 -4.222656 0.625 -4.921875 C 0.625 -5.628906 0.757812 -6.285156 1.03125 -6.890625 C 1.300781 -7.492188 1.675781 -8.023438 2.15625 -8.484375 C 2.644531 -8.953125 3.203125 -9.316406 3.828125 -9.578125 C 4.460938 -9.835938 5.140625 -9.96875 5.859375 -9.96875 C 6.691406 -9.96875 7.4375 -9.84375 8.09375 -9.59375 C 8.757812 -9.34375 9.332031 -8.992188 9.8125 -8.546875 L 8.546875 -7.15625 C 8.222656 -7.457031 7.828125 -7.6875 7.359375 -7.84375 C 6.898438 -8.007812 6.398438 -8.09375 5.859375 -8.09375 C 5.273438 -8.09375 4.738281 -7.945312 4.25 -7.65625 C 3.769531 -7.375 3.382812 -6.992188 3.09375 -6.515625 C 2.8125 -6.035156 2.671875 -5.503906 2.671875 -4.921875 C 2.671875 -4.316406 2.8125 -3.765625 3.09375 -3.265625 C 3.382812 -2.773438 3.769531 -2.382812 4.25 -2.09375 C 4.738281 -1.8125 5.273438 -1.671875 5.859375 -1.671875 C 6.304688 -1.671875 6.722656 -1.726562 7.109375 -1.84375 C 7.492188 -1.96875 7.84375 -2.132812 8.15625 -2.34375 L 8.15625 -3.265625 L 5.65625 -3.265625 L 5.65625 -4.9375 Z M 10.15625 -4.9375 "/></g></g></g><g fill="#0b3042" fill-opacity="1"><g transform="translate(234.228146, 196.241778)"><g><path d="M 8.59375 -1.734375 L 8.59375 0 L 1.015625 0 L 1.015625 -9.875 L 8.296875 -9.875 L 8.296875 -8.140625 L 2.96875 -8.140625 L 2.96875 -5.625 L 7.4375 -5.625 L 7.4375 -3.953125 L 2.96875 -3.953125 L 2.96875 -1.734375 Z M 8.59375 -1.734375 "/></g></g></g><g fill="#0b3042" fill-opacity="1"><g transform="translate(251.900363, 196.241778)"><g/></g></g></svg>